<svg xmlns="http://www.w3.org/2000/svg" viewBox="0 0 750 480" fill="none">
  <style>path { shape-rendering: geometricPrecision; }</style>
  <!-- Chameleon Mascot Center Top -->
  <g transform="translate(218, 0)">
    <g id="chameleon_coral">
      <path d="M 293.52 134.20 C 291.99 134.19, 288.34 140.39, 286.92 140.90 C 284.39 141.84, 279.05 141.16, 276.67 142.48 C 273.05 144.49, 272.69 148.20, 268.58 149.18 C 263.21 150.46, 257.47 150.00, 252.00 150.00 C 243.33 150.00, 234.67 150.00, 226.00 150.00 C 219.67 150.00, 213.33 150.00, 207.00 150.00 C 203.32 150.00, 199.54 149.76, 195.89 150.17 C 191.58 150.66, 186.63 153.76, 190.93 158.14 C 195.18 161.06, 206.59 160.00, 212.00 160.00 C 223.33 160.00, 234.67 160.00, 246.00 160.00 C 252.38 160.00, 258.97 160.47, 265.31 159.66 C 274.16 158.53, 281.82 154.56, 287.86 147.98 C 288.94 146.81, 296.29 135.48, 293.52 134.20 Z" fill="#F47151" fill-rule="evenodd" stroke="#F47151" stroke-width="1.2" stroke-linecap="round" stroke-linejoin="round" />
      <path d="M 89.99 111.14 C 83.14 111.83, 75.82 115.05, 71.23 120.31 C 69.45 122.34, 67.30 127.62, 71.40 128.63 C 74.81 129.47, 78.35 125.66, 80.99 124.07 C 82.28 123.29, 83.65 122.64, 85.07 122.11 C 98.69 116.98, 113.99 124.08, 116.61 139.00 C 117.13 141.96, 117.40 145.96, 115.68 148.60 C 113.51 151.94, 108.03 152.64, 104.60 154.04 C 102.32 154.97, 100.11 156.06, 98.01 157.36 C 88.23 163.43, 80.63 173.42, 78.27 184.80 C 77.58 188.11, 76.97 191.59, 77.25 194.98 C 78.46 209.97, 90.18 224.31, 104.89 227.79 C 109.29 228.83, 113.83 229.34, 118.25 228.11 C 127.63 225.50, 137.52 217.22, 138.68 207.03 C 139.29 201.72, 134.83 189.24, 128.05 189.88 C 127.12 189.97, 126.24 190.40, 125.61 191.10 C 122.41 194.65, 128.17 200.09, 128.60 204.04 C 129.59 213.13, 120.02 219.06, 111.96 218.88 C 108.15 218.79, 104.34 217.67, 100.96 215.95 C 85.62 208.14, 83.64 188.55, 92.16 175.02 C 104.39 157.18, 124.26 160.00, 143.00 160.00 C 147.23 160.00, 159.37 159.17, 162.54 161.18 C 165.22 162.88, 167.92 168.36, 170.24 170.99 C 177.92 179.74, 186.36 183.93, 197.99 183.99 C 201.06 184.01, 205.04 184.42, 207.54 182.26 C 210.31 179.85, 209.03 176.06, 205.76 174.99 C 202.60 173.97, 198.99 174.97, 195.72 174.63 C 187.59 173.77, 180.05 169.95, 175.60 162.95 C 170.22 154.49, 170.05 144.07, 173.92 134.99 C 175.20 132.00, 180.39 124.62, 176.40 122.02 C 173.09 119.85, 169.60 124.33, 168.05 126.67 C 165.65 130.32, 163.71 134.54, 162.65 138.78 C 161.92 141.73, 162.33 145.71, 160.45 148.25 C 158.86 150.41, 155.34 149.99, 153.00 150.00 C 148.33 150.01, 143.67 150.00, 139.00 150.00 C 136.39 150.00, 133.72 150.15, 131.12 149.88 C 125.96 149.35, 127.20 144.47, 126.61 140.61 C 125.95 136.32, 124.47 132.11, 122.46 128.27 C 118.05 119.80, 109.61 113.14, 100.10 111.41 C 96.80 110.81, 93.31 110.92, 89.99 111.14 Z" fill="#F47151" fill-rule="evenodd" stroke="#F47151" stroke-width="1.2" stroke-linecap="round" stroke-linejoin="round" />
      <path d="M 49.87 122.11 C 52.24 121.21, 54.59 115.90, 54.36 113.52 C 54.22 112.03, 52.29 110.16, 51.80 108.77 C 50.42 104.90, 49.72 100.91, 51.75 97.16 C 54.55 91.97, 60.51 90.20, 66.00 89.54 C 68.00 89.31, 71.78 90.41, 73.69 89.65 C 75.91 88.77, 76.21 86.04, 77.84 84.34 C 78.96 83.17, 80.98 83.60, 81.35 81.99 C 81.89 79.61, 80.05 75.48, 79.61 73.15 C 78.66 68.08, 80.22 63.46, 85.23 61.31 C 90.90 58.88, 97.83 60.14, 103.53 61.78 C 105.70 62.41, 108.67 65.38, 110.96 65.46 C 113.59 65.55, 115.51 62.65, 117.85 61.49 C 119.20 60.81, 120.82 62.50, 121.60 61.16 C 122.58 59.49, 122.09 54.83, 122.27 52.98 C 122.69 48.60, 124.65 43.55, 129.02 41.78 C 130.59 41.14, 132.33 41.04, 134.01 41.06 C 141.08 41.13, 147.69 44.79, 152.93 49.32 C 154.71 50.86, 156.91 54.28, 158.96 55.46 C 161.04 56.67, 169.46 59.15, 170.97 56.49 C 171.29 53.08, 163.30 46.31, 160.99 44.21 C 152.53 36.50, 138.92 28.12, 127.00 31.89 C 121.97 33.48, 117.72 37.75, 115.44 42.43 C 114.07 45.25, 113.58 50.04, 110.73 51.84 C 107.76 53.71, 101.35 51.07, 98.07 50.50 C 92.05 49.47, 85.22 50.09, 79.83 53.10 C 74.16 56.26, 70.03 62.30, 69.43 68.82 C 69.19 71.49, 70.33 74.93, 68.99 77.39 C 67.68 79.79, 64.27 79.88, 61.93 80.37 C 58.39 81.12, 54.96 82.49, 51.89 84.41 C 42.40 90.34, 37.45 99.86, 42.15 110.49 C 43.38 113.25, 46.36 122.08, 49.87 122.11 Z" fill="#F47151" fill-rule="evenodd" stroke="#F47151" stroke-width="1.2" stroke-linecap="round" stroke-linejoin="round" />
    </g>
    <g id="chameleon_navy">
      <path d="M 229.20 64.01 C 224.31 65.37, 219.78 67.86, 215.80 71.02 C 212.61 73.54, 210.17 76.64, 208.23 80.20 C 195.19 104.18, 217.69 131.03, 243.57 125.15 C 248.13 123.89, 252.40 121.66, 256.00 118.57 C 263.02 112.56, 268.06 103.42, 267.81 94.00 C 267.32 74.97, 247.57 59.78, 229.20 64.01 Z M 230.93 73.42 C 238.30 72.22, 245.87 73.62, 251.33 79.04 C 253.83 81.53, 255.49 84.65, 256.52 88.00 C 260.26 100.16, 254.06 112.41, 241.43 115.49 C 234.77 116.68, 227.32 116.00, 222.02 111.42 C 208.69 99.91, 213.52 77.34, 230.93 73.42 Z" fill="#222F3D" fill-rule="evenodd" stroke="#222F3D" stroke-width="1.2" stroke-linecap="round" stroke-linejoin="round" />
      <path d="M 192.68 25.17 C 184.77 27.78, 178.91 33.24, 176.85 41.43 C 176.48 42.89, 176.25 44.38, 176.14 45.88 C 175.91 48.77, 176.74 53.67, 173.56 55.25 C 170.37 56.84, 164.81 55.75, 161.37 55.50 C 158.25 55.27, 155.22 55.69, 152.12 55.88 C 150.08 56.01, 148.04 55.97, 146.00 56.07 C 142.40 56.23, 138.83 56.98, 135.30 57.67 C 125.18 59.65, 115.64 62.64, 106.25 66.88 C 85.10 76.41, 66.54 93.48, 54.78 113.43 C 35.51 146.10, 33.71 191.33, 58.93 221.42 C 71.90 236.89, 91.72 246.94, 112.00 247.00 C 114.67 247.01, 117.38 247.09, 120.04 246.76 C 128.40 245.74, 136.57 241.53, 142.79 235.96 C 146.10 232.99, 149.01 229.62, 151.25 225.76 C 153.98 221.04, 156.10 215.48, 156.76 210.04 C 157.61 203.04, 156.33 196.34, 153.44 189.94 C 143.64 168.20, 114.19 159.71, 99.75 181.90 C 94.54 189.91, 94.81 200.15, 102.08 206.72 C 104.05 208.49, 106.49 210.22, 109.15 210.71 C 111.85 211.22, 116.39 209.61, 115.39 206.08 C 114.45 202.75, 110.11 201.37, 108.07 198.81 C 104.41 194.22, 106.70 187.14, 110.43 183.32 C 112.76 180.92, 115.93 179.64, 119.17 179.05 C 130.19 177.03, 140.86 184.00, 144.93 194.13 C 150.88 208.97, 143.89 226.79, 129.53 233.78 C 123.84 236.55, 118.22 237.00, 112.00 237.00 C 108.44 237.00, 104.93 236.95, 101.43 236.22 C 64.32 228.42, 46.75 194.56, 50.31 158.69 C 52.10 143.68, 56.36 128.48, 64.33 115.52 C 82.50 85.96, 113.79 68.63, 147.99 65.89 C 150.67 65.68, 153.32 65.16, 156.01 65.08 C 160.33 64.95, 165.88 65.50, 170.13 66.30 C 171.79 66.62, 173.51 67.20, 174.62 68.55 C 176.97 71.41, 175.87 81.11, 176.05 85.00 C 176.20 88.35, 177.76 92.54, 181.99 91.51 C 187.10 90.26, 186.00 82.89, 186.00 79.00 C 186.00 71.33, 186.00 63.67, 186.00 56.00 C 186.00 51.74, 185.49 47.03, 186.69 42.89 C 189.45 33.31, 198.33 33.81, 206.19 35.22 C 222.38 38.12, 238.22 45.23, 251.14 55.40 C 259.67 62.12, 266.99 69.86, 272.97 78.95 C 277.26 85.47, 280.62 92.43, 283.23 99.79 C 285.49 106.16, 290.52 121.78, 286.70 127.88 C 283.51 132.98, 275.30 132.96, 270.00 132.99 C 261.33 133.05, 252.67 133.00, 244.00 133.00 C 235.94 133.00, 227.84 133.42, 219.95 131.47 C 216.12 130.53, 212.35 129.08, 209.01 126.97 C 207.22 125.85, 205.61 124.45, 203.77 123.41 C 201.86 122.33, 199.20 121.47, 197.20 122.86 C 193.58 125.39, 198.38 130.17, 200.36 131.92 C 207.59 138.28, 217.14 141.36, 226.55 142.55 C 232.32 143.28, 238.20 143.00, 244.00 143.00 C 252.67 143.00, 261.33 143.00, 270.00 143.00 C 278.06 143.00, 286.47 142.76, 292.72 136.83 C 302.21 127.83, 296.68 110.36, 293.43 99.66 C 292.41 96.32, 291.15 93.14, 289.61 90.01 C 286.65 84.01, 283.60 78.00, 279.80 72.48 C 266.49 53.10, 245.48 37.38, 223.19 29.81 C 217.29 27.80, 211.45 26.29, 205.31 25.20 C 202.90 24.77, 200.45 24.22, 197.99 24.26 C 196.16 24.28, 194.42 24.68, 192.68 25.17 Z" fill="#222F3D" fill-rule="evenodd" stroke="#222F3D" stroke-width="1.2" stroke-linecap="round" stroke-linejoin="round" />
    </g>
    <g id="chameleon_cyan">
      <path d="M 238.65 87.99 C 228.58 94.37, 236.26 107.38, 245.88 102.95 C 255.54 96.88, 247.35 83.96, 238.65 87.99 Z" fill="#5C9AA7" fill-rule="evenodd" stroke="#5C9AA7" stroke-width="1.2" stroke-linecap="round" stroke-linejoin="round" />
    </g>
  </g>

  <!-- Wordmark Center Bottom -->
  <g transform="translate(0, 270)" fill="#222F3D" stroke="#222F3D" stroke-width="1.2" stroke-linecap="round" stroke-linejoin="round">
    <path d="M 444.25 140.84 C 449.52 138.05, 462.23 131.07, 455.72 123.42 C 452.52 119.65, 447.43 122.42, 444.07 124.42 C 434.86 129.90, 424.67 132.71, 413.99 130.11 C 402.83 127.39, 393.08 119.80, 388.46 109.11 C 386.97 105.67, 386.02 96.15, 383.50 94.14 C 381.23 93.46, 379.23 94.96, 377.43 96.19 C 368.86 102.06, 370.30 105.73, 374.22 114.27 C 386.16 140.32, 417.97 153.90, 444.25 140.84 Z" fill-rule="evenodd" />
    <path d="M 649.59 68.72 C 642.75 71.17, 643.00 77.88, 643.00 84.00 C 643.00 98.67, 643.00 113.33, 643.00 128.00 C 643.00 133.48, 642.33 142.61, 649.66 143.77 C 654.61 144.56, 658.54 140.70, 658.91 136.00 C 659.85 124.31, 656.34 101.05, 661.19 91.42 C 668.31 77.27, 691.34 78.87, 697.33 93.15 C 700.70 102.29, 699.00 117.96, 699.00 128.00 C 699.00 133.21, 698.29 139.73, 703.19 143.14 C 709.65 147.63, 714.90 139.68, 714.99 134.00 C 715.22 118.49, 717.46 98.06, 710.22 84.03 C 703.71 71.42, 688.62 65.01, 674.99 67.82 C 670.58 68.72, 665.01 72.77, 661.07 72.81 C 656.59 72.86, 655.24 67.59, 649.59 68.72 Z" fill-rule="evenodd" />
    <path d="M 583.15 68.00 C 577.47 69.07, 572.73 71.37, 568.03 74.73 C 562.87 78.44, 559.08 83.35, 556.27 89.00 C 539.91 121.88, 575.22 159.99, 608.00 139.46 C 609.33 138.60, 611.06 137.10, 612.78 137.46 C 616.43 138.21, 621.38 150.23, 628.44 140.91 C 631.53 136.84, 630.00 123.35, 630.00 118.00 C 630.00 111.84, 630.83 104.96, 629.50 98.92 C 624.68 77.07, 604.67 64.23, 583.15 68.00 Z M 584.88 82.20 C 616.64 74.92, 626.87 121.68, 597.15 130.24 C 565.71 137.96, 556.12 89.96, 584.88 82.20 Z" fill-rule="evenodd" />
    <path d="M 211.38 76.00 C 195.97 88.97, 196.00 103.59, 196.00 122.00 C 196.00 131.00, 196.00 140.00, 196.00 149.00 C 196.00 155.75, 193.49 176.17, 205.00 174.65 C 214.73 173.37, 212.00 153.07, 212.00 146.00 C 212.00 143.51, 211.14 138.91, 213.36 137.20 C 216.49 136.53, 223.56 142.51, 227.15 143.70 C 238.44 147.45, 252.04 144.24, 260.99 136.70 C 265.34 133.04, 268.31 128.19, 270.82 123.15 C 289.13 86.40, 244.63 50.42, 211.38 76.00 Z M 229.14 82.32 C 260.08 75.64, 270.39 118.41, 244.92 129.30 C 211.64 141.67, 198.69 90.71, 229.14 82.32 Z" fill-rule="evenodd" />
    <path d="M 136.85 68.15 C 104.09 75.37, 94.21 119.05, 122.26 138.58 C 131.29 144.86, 143.44 147.19, 154.00 143.47 C 158.17 142.01, 161.69 138.38, 165.93 137.42 C 171.08 137.89, 172.12 146.33, 178.57 143.78 C 186.62 140.59, 184.00 121.39, 184.00 114.00 C 184.00 107.66, 184.08 101.65, 182.31 95.49 C 176.58 75.58, 156.84 64.06, 136.85 68.15 Z M 138.66 82.37 C 146.26 81.18, 154.63 81.72, 160.58 87.08 C 173.49 98.72, 170.43 122.95, 153.85 129.37 C 119.98 141.17, 108.34 89.29, 138.66 82.37 Z" fill-rule="evenodd" />
    <path d="M 30.35 40.68 C 23.92 45.13, 26.00 55.16, 26.00 62.00 C 26.00 81.67, 26.00 101.33, 26.00 121.00 C 26.00 127.91, 23.81 139.66, 31.07 143.72 C 35.99 146.47, 41.09 141.87, 41.81 137.00 C 42.58 131.77, 40.52 113.72, 42.94 110.53 C 44.28 108.77, 47.06 109.02, 49.00 109.00 C 59.92 108.97, 71.26 110.31, 81.58 106.12 C 103.82 97.09, 109.92 67.55, 93.84 50.03 C 82.08 37.22, 64.76 39.00, 49.00 39.00 C 43.05 39.00, 35.79 37.87, 30.35 40.68 Z M 43.53 55.21 C 47.11 51.86, 53.47 53.00, 58.00 53.00 C 65.54 53.00, 75.05 53.06, 80.97 58.50 C 91.40 68.08, 88.07 87.63, 75.03 92.89 C 69.47 94.76, 49.29 96.75, 44.26 93.74 C 41.37 92.01, 42.00 87.86, 42.00 85.00 C 42.00 78.99, 40.60 59.35, 43.53 55.21 Z" fill-rule="evenodd" />
    <path d="M 473.92 39.71 C 467.28 44.66, 469.00 54.72, 469.00 62.00 C 469.00 81.67, 469.00 101.33, 469.00 121.00 C 469.00 128.00, 466.79 140.45, 475.08 143.81 C 480.76 146.10, 484.72 139.87, 484.96 135.03 C 485.55 122.88, 482.15 99.77, 488.37 89.77 C 497.22 75.53, 520.09 79.88, 524.48 95.93 C 526.41 105.23, 524.95 120.08, 525.00 130.00 C 525.03 135.01, 525.98 141.45, 531.01 143.99 C 532.62 144.81, 534.40 144.66, 535.99 143.88 C 542.17 140.85, 541.00 133.72, 541.00 128.00 C 541.00 110.89, 544.32 90.70, 531.59 77.05 C 524.55 69.50, 513.18 65.65, 503.00 67.43 C 499.73 68.00, 488.19 73.48, 486.53 72.25 C 484.54 70.77, 485.00 67.14, 485.00 65.00 C 484.99 58.03, 487.40 42.27, 479.53 39.22 C 477.54 38.45, 475.75 38.76, 473.92 39.71 Z" fill-rule="evenodd" />
    <path d="M 415.00 38.07 C 401.27 39.21, 387.73 48.04, 379.74 59.00 C 375.66 64.60, 373.45 71.58, 368.78 76.71 C 362.87 83.21, 354.65 86.30, 350.35 94.44 C 344.29 105.93, 347.26 121.71, 333.71 128.33 C 329.10 130.58, 323.92 131.42, 318.82 130.82 C 298.55 128.45, 291.87 100.19, 306.43 87.08 C 313.08 81.09, 324.95 80.17, 333.00 83.89 C 336.03 85.29, 339.05 89.30, 342.41 89.54 C 345.90 89.79, 349.54 84.63, 349.80 81.51 C 350.29 75.60, 337.83 69.69, 333.00 68.49 C 316.19 64.31, 298.17 71.01, 288.93 85.93 C 274.23 111.57, 290.03 144.99, 321.00 145.00 C 325.14 145.00, 329.13 145.00, 333.15 143.82 C 346.03 140.03, 355.51 130.32, 359.54 117.58 C 361.36 111.81, 360.84 105.11, 363.82 99.74 C 367.73 92.69, 376.51 88.99, 381.84 83.00 C 387.52 76.61, 389.97 67.98, 396.22 62.01 C 406.42 52.28, 422.00 49.33, 435.15 54.20 C 440.00 56.00, 448.65 63.92, 453.55 61.72 C 461.38 58.20, 455.79 49.27, 451.00 46.09 C 439.86 38.69, 427.99 37.51, 415.00 38.07 Z" fill-rule="evenodd" />
  </g>
</svg>